<?xml version="1.0" encoding="utf-8"?>
<!-- Generator: Adobe Illustrator 22.1.0, SVG Export Plug-In . SVG Version: 6.00 Build 0)  -->
<svg version="1.1" id="Camada_1" xmlns="http://www.w3.org/2000/svg" xmlns:xlink="http://www.w3.org/1999/xlink" x="0px" y="0px"
	 viewBox="0 0 319.5 34.5" style="enable-background:new 0 0 319.5 34.5;" xml:space="preserve">
<style type="text/css">
	.st0{fill:#f2f2f2;}
</style>
<g>
	<g>
		<path class="st0" d="M63.7,16.3V16c0-0.6-0.1-1.1-0.2-1.5c-0.1-0.5-0.3-0.9-0.6-1.2c-0.3-0.3-0.6-0.6-1-0.8
			c-0.4-0.2-0.9-0.3-1.4-0.3c-1.2,0-2.1,0.6-2.7,1.7c-0.6,1.1-0.8,2.8-0.8,5c0,1.8,0.3,3.2,1,4.2c0.7,1,1.6,1.5,2.8,1.5
			c0.6,0,1.3-0.1,2-0.4c0.7-0.3,1.5-0.8,2.4-1.4c0.4,0.2,0.7,0.6,1,1c0.3,0.4,0.5,0.8,0.6,1.2c-0.4,0.4-0.8,0.7-1.3,1
			c-0.5,0.3-1,0.6-1.6,0.8c-0.6,0.2-1.2,0.4-1.8,0.6c-0.6,0.1-1.2,0.2-1.9,0.2c-1.2,0-2.3-0.2-3.2-0.7c-0.9-0.5-1.6-1.1-2.1-1.9
			c-0.5-0.8-0.9-1.8-1.2-2.8c-0.2-1.1-0.4-2.2-0.4-3.4c0-1.5,0.2-2.8,0.6-4c0.4-1.1,0.9-2.1,1.5-2.8c0.6-0.8,1.4-1.3,2.2-1.7
			c0.9-0.4,1.8-0.6,2.7-0.6c1,0,1.9,0.1,2.7,0.4c0.8,0.3,1.5,0.6,2,1.1s1,1,1.3,1.6s0.5,1.3,0.5,2c0,1.3-0.6,1.9-1.9,1.9
			c-0.2,0-0.4,0-0.6,0C64.2,16.4,64,16.3,63.7,16.3z"/>
		<path class="st0" d="M77.7,23.2l-1.2,0h-3.5l-1.2,0l-1.2,4c-0.4,0.1-0.9,0.1-1.5,0.1s-1.2-0.1-1.6-0.2l-0.1-0.2l5.6-17
			c0.6-0.1,1.3-0.1,2-0.1c0.7,0,1.4,0.1,1.9,0.2l5.5,17c-0.5,0.3-1.1,0.4-1.8,0.4s-1.2-0.1-1.5-0.4s-0.5-0.7-0.7-1.4L77.7,23.2z
			 M72.5,20.5l1.1,0h2.2l1.1,0l-0.8-2.6c-0.6-1.9-1-3.6-1.4-4.9h-0.2c-0.2,0.7-0.5,2.2-1.1,4.3L72.5,20.5z"/>
		<path class="st0" d="M89.6,24.2h4.7c0,0.5,0,0.9-0.1,1.3c-0.2,1.1-0.9,1.6-2.2,1.6h-6.2c-0.6,0-1.1-0.2-1.4-0.5
			c-0.4-0.4-0.5-0.9-0.5-1.5V9.8l0.2-0.2h1.3c0.7,0,1.2,0.2,1.5,0.5c0.3,0.3,0.5,0.9,0.5,1.7v12.5C88,24.3,88.8,24.2,89.6,24.2z"/>
		<path class="st0" d="M104.9,16.3V16c0-0.6-0.1-1.1-0.2-1.5c-0.1-0.5-0.3-0.9-0.6-1.2c-0.3-0.3-0.6-0.6-1-0.8
			c-0.4-0.2-0.9-0.3-1.4-0.3c-1.2,0-2.1,0.6-2.7,1.7c-0.6,1.1-0.8,2.8-0.8,5c0,1.8,0.3,3.2,1,4.2c0.7,1,1.6,1.5,2.8,1.5
			c0.6,0,1.3-0.1,2-0.4c0.7-0.3,1.5-0.8,2.4-1.4c0.4,0.2,0.7,0.6,1,1c0.3,0.4,0.5,0.8,0.6,1.2c-0.4,0.4-0.8,0.7-1.3,1
			c-0.5,0.3-1,0.6-1.6,0.8c-0.6,0.2-1.2,0.4-1.8,0.6c-0.6,0.1-1.2,0.2-1.9,0.2c-1.2,0-2.3-0.2-3.2-0.7c-0.9-0.5-1.6-1.1-2.1-1.9
			c-0.5-0.8-0.9-1.8-1.2-2.8c-0.2-1.1-0.4-2.2-0.4-3.4c0-1.5,0.2-2.8,0.6-4c0.4-1.1,0.9-2.1,1.5-2.8c0.6-0.8,1.4-1.3,2.2-1.7
			c0.9-0.4,1.8-0.6,2.7-0.6c1,0,1.9,0.1,2.7,0.4c0.8,0.3,1.5,0.6,2,1.1s1,1,1.3,1.6s0.5,1.3,0.5,2c0,1.3-0.6,1.9-1.9,1.9
			c-0.2,0-0.4,0-0.6,0C105.4,16.4,105.2,16.3,104.9,16.3z"/>
		<path class="st0" d="M123.2,9.8v11.1c0,2.1-0.6,3.7-1.7,4.9c-1.2,1.1-2.8,1.7-4.9,1.7c-2.1,0-3.7-0.6-4.9-1.7
			c-1.2-1.1-1.7-2.8-1.7-4.9v-11l0.2-0.2h1.3c0.7,0,1.2,0.2,1.5,0.5c0.3,0.3,0.5,0.9,0.5,1.7v9.1c0,2.6,1.1,3.8,3.2,3.8
			c2.1,0,3.2-1.3,3.2-3.8V9.8c0.5-0.1,1-0.1,1.7-0.1C122.2,9.7,122.7,9.7,123.2,9.8z"/>
		<path class="st0" d="M132,24.2h4.7c0,0.5,0,0.9-0.1,1.3c-0.2,1.1-0.9,1.6-2.2,1.6h-6.2c-0.6,0-1.1-0.2-1.4-0.5
			c-0.4-0.4-0.5-0.9-0.5-1.5V9.8l0.2-0.2h1.3c0.7,0,1.2,0.2,1.5,0.5c0.3,0.3,0.5,0.9,0.5,1.7v12.5C130.4,24.3,131.2,24.2,132,24.2z"
			/>
		<path class="st0" d="M147.2,23.2l-1.2,0h-3.5l-1.2,0l-1.2,4c-0.4,0.1-0.9,0.1-1.5,0.1s-1.2-0.1-1.6-0.2l-0.1-0.2l5.6-17
			c0.6-0.1,1.3-0.1,2-0.1c0.7,0,1.4,0.1,1.9,0.2l5.5,17c-0.5,0.3-1.1,0.4-1.8,0.4s-1.2-0.1-1.5-0.4s-0.5-0.7-0.7-1.4L147.2,23.2z
			 M142,20.5l1.1,0h2.2l1.1,0l-0.8-2.6c-0.6-1.9-1-3.6-1.4-4.9h-0.2c-0.2,0.7-0.5,2.2-1.1,4.3L142,20.5z"/>
		<path class="st0" d="M164.1,26c-0.5,0.4-1.2,0.8-2.1,1c-0.9,0.2-1.8,0.3-2.7,0.3c-0.5,0-1.2,0-2.1,0c-1,0-2.2,0-3.7-0.1l-0.2-0.2
			v-17l0.2-0.2c1,0,2-0.1,3-0.1c1,0,2,0,3,0c1.4,0,2.6,0.2,3.5,0.7c0.9,0.5,1.7,1.1,2.2,1.9c0.6,0.8,0.9,1.7,1.2,2.8
			c0.2,1.1,0.3,2.2,0.3,3.4c0,1.7-0.2,3.1-0.6,4.4C165.9,24.1,165.2,25.1,164.1,26z M162.7,14.4c-0.5-1.4-1.5-2-3.1-2
			c-0.6,0-1.1,0-1.6,0c-0.5,0-0.8,0-1.2,0v12.2c0.3,0,0.7,0,1.1,0c0.4,0,0.8,0,1.2,0c0.4,0,0.8-0.1,1.2-0.1c0.4-0.1,0.7-0.1,0.9-0.3
			c0.4-0.2,0.8-0.6,1.1-0.9c0.3-0.4,0.5-0.9,0.6-1.4c0.2-0.5,0.3-1.1,0.3-1.7c0.1-0.6,0.1-1.2,0.1-1.9c0-0.7,0-1.4-0.1-2
			S163,15,162.7,14.4z"/>
		<path class="st0" d="M170.9,25.9c-1.8-1.6-2.7-4-2.7-7.4c0-1.4,0.2-2.7,0.5-3.8s0.8-2.1,1.4-2.8c0.6-0.8,1.4-1.4,2.3-1.8
			c0.9-0.4,1.9-0.6,3.1-0.6c1.1,0,2.2,0.2,3.1,0.6c0.9,0.4,1.7,1,2.3,1.8c0.6,0.8,1.1,1.7,1.4,2.8s0.5,2.4,0.5,3.8s-0.2,2.7-0.5,3.8
			s-0.8,2.1-1.4,2.8c-0.6,0.8-1.4,1.4-2.3,1.8c-0.9,0.4-1.9,0.6-3.1,0.6C173.7,27.5,172.1,26.9,170.9,25.9z M179.2,18.5
			c0-4.2-1.2-6.4-3.7-6.4c-2.5,0-3.7,2.1-3.7,6.4c0,4.2,1.2,6.3,3.7,6.3C178,24.8,179.2,22.7,179.2,18.5z"/>
		<path class="st0" d="M197,15c0,0.6-0.1,1.1-0.2,1.6c-0.2,0.5-0.4,0.9-0.7,1.3c-0.3,0.4-0.6,0.7-1,1c-0.4,0.3-0.8,0.5-1.3,0.7
			c0.4,0.2,0.8,0.4,1.1,0.8c0.3,0.4,0.6,0.9,0.8,1.4l0.9,2.6c0.2,0.4,0.3,0.8,0.5,1.1c0.2,0.3,0.4,0.6,0.7,0.8
			c-0.2,0.3-0.5,0.5-0.9,0.7c-0.4,0.2-0.9,0.3-1.4,0.3c-0.5,0-0.9-0.2-1.2-0.5c-0.3-0.3-0.6-0.8-0.8-1.5l-1.1-3
			c-0.2-0.6-0.5-1-0.8-1.4s-0.8-0.5-1.5-0.5h-1.6v6.6c-0.2,0-0.5,0.1-0.8,0.1c-0.3,0-0.6,0-0.9,0c-0.6,0-1.2,0-1.6-0.1V9.9l0.2-0.2
			c1.4,0,2.5-0.1,3.5-0.1c1,0,1.7,0,2.3,0c1.8,0,3.3,0.5,4.3,1.4C196.5,12,197,13.3,197,15z M188.5,12.3v5.6
			c0.9-0.1,1.7-0.1,2.3-0.1c1.8,0,2.7-0.9,2.7-2.7c0-1.8-0.9-2.7-2.7-2.7c-0.5,0-1,0-1.4,0S188.7,12.3,188.5,12.3z"/>
		<path class="st0" d="M208.3,23.2l-1.2,0h-3.5l-1.2,0l-1.2,4c-0.4,0.1-0.9,0.1-1.5,0.1s-1.2-0.1-1.6-0.2l-0.1-0.2l5.6-17
			c0.6-0.1,1.3-0.1,2-0.1s1.4,0.1,1.9,0.2l5.5,17c-0.5,0.3-1.1,0.4-1.8,0.4s-1.2-0.1-1.5-0.4c-0.3-0.3-0.5-0.7-0.7-1.4L208.3,23.2z
			 M203.1,20.5l1.1,0h2.2l1.1,0l-0.8-2.6c-0.6-1.9-1-3.6-1.4-4.9h-0.2c-0.2,0.7-0.5,2.2-1.1,4.3L203.1,20.5z"/>
		<path class="st0" d="M224.5,25.9c-0.2,0.2-0.5,0.4-0.9,0.5s-0.7,0.3-1.1,0.4c-0.4,0.1-0.8,0.2-1.1,0.3s-0.7,0.1-1,0.1
			c-0.3,0-0.9,0-1.8,0c-0.9,0-2.1,0-3.5-0.1l-0.2-0.2V10l0.2-0.2c1.5-0.1,3.2-0.1,5.1-0.1c1.3,0,2.4,0.2,3.3,0.7
			c0.9,0.5,1.6,1.1,2.1,1.9c0.5,0.8,0.9,1.7,1.1,2.8c0.2,1.1,0.3,2.2,0.3,3.4c0,0.8,0,1.6-0.1,2.3c-0.1,0.7-0.2,1.4-0.4,2
			c-0.2,0.6-0.5,1.2-0.8,1.7S225,25.5,224.5,25.9z M216.9,25.6l3.3,0c1,0,1.8-0.2,2.4-0.6c0.6-0.4,1.1-0.9,1.5-1.5
			c0.4-0.6,0.6-1.3,0.8-2.1s0.2-1.6,0.2-2.3c0-1.1-0.1-2.2-0.2-3.1s-0.4-1.8-0.7-2.5c-0.4-0.7-0.9-1.2-1.5-1.6
			c-0.7-0.4-1.5-0.6-2.4-0.6l-3.3,0V25.6z"/>
		<path class="st0" d="M231.8,25.9c-1.8-1.6-2.7-4.1-2.7-7.5c0-1.3,0.1-2.6,0.4-3.7c0.3-1.1,0.7-2.1,1.3-2.8
			c0.6-0.8,1.3-1.4,2.1-1.8s1.8-0.6,2.9-0.6c1.2,0,2.2,0.2,3,0.7c0.9,0.5,1.6,1.1,2.1,1.9c0.6,0.8,1,1.8,1.3,2.8
			c0.3,1.1,0.4,2.2,0.4,3.4c0,1.3-0.1,2.6-0.4,3.7c-0.3,1.1-0.7,2.1-1.3,2.8c-0.6,0.8-1.3,1.4-2.1,1.8c-0.9,0.4-1.8,0.6-3,0.6
			C234.3,27.4,232.9,26.9,231.8,25.9z M231.4,15.9c-0.1,0.4-0.1,0.8-0.2,1.3s0,0.9,0,1.3c0,0.8,0.1,1.6,0.2,2.4s0.3,1.7,0.7,2.4
			c0.3,0.7,0.8,1.3,1.4,1.8c0.6,0.5,1.4,0.7,2.5,0.7c0.7,0,1.3-0.1,1.8-0.4c0.5-0.2,0.9-0.5,1.3-0.9c0.4-0.4,0.6-0.8,0.8-1.3
			c0.2-0.5,0.4-1,0.5-1.6c0.1-0.6,0.2-1.1,0.3-1.6c0.1-0.5,0.1-1.1,0.1-1.5c0-0.7-0.1-1.5-0.2-2.4c-0.1-0.9-0.3-1.7-0.7-2.4
			c-0.3-0.7-0.8-1.3-1.4-1.8c-0.6-0.5-1.4-0.7-2.4-0.7c-0.8,0-1.4,0.1-1.9,0.4c-0.5,0.3-1,0.6-1.3,1.1s-0.6,1-0.8,1.5
			C231.7,14.7,231.5,15.3,231.4,15.9z"/>
		<path class="st0" d="M254.6,16.3V16c0-0.6-0.1-1.1-0.2-1.5s-0.3-0.9-0.6-1.2c-0.3-0.3-0.6-0.6-1-0.8c-0.4-0.2-0.9-0.3-1.4-0.3
			c-1.2,0-2.1,0.6-2.7,1.7c-0.6,1.1-0.8,2.8-0.8,5c0,1.8,0.3,3.2,1,4.2c0.7,1,1.6,1.5,2.8,1.5c0.6,0,1.3-0.1,2-0.4
			c0.7-0.3,1.5-0.8,2.4-1.4c0.4,0.2,0.7,0.6,1,1c0.3,0.4,0.5,0.8,0.6,1.2c-0.4,0.4-0.8,0.7-1.3,1c-0.5,0.3-1,0.6-1.6,0.8
			c-0.6,0.2-1.2,0.4-1.8,0.6c-0.6,0.1-1.2,0.2-1.9,0.2c-1.2,0-2.3-0.2-3.2-0.7c-0.9-0.5-1.6-1.1-2.1-1.9c-0.5-0.8-0.9-1.8-1.2-2.8
			c-0.2-1.1-0.4-2.2-0.4-3.4c0-1.5,0.2-2.8,0.6-4c0.4-1.1,0.9-2.1,1.5-2.8c0.6-0.8,1.4-1.3,2.2-1.7s1.8-0.6,2.7-0.6
			c1,0,1.9,0.1,2.7,0.4s1.5,0.6,2,1.1c0.6,0.5,1,1,1.3,1.6c0.3,0.6,0.5,1.3,0.5,2c0,1.3-0.6,1.9-1.9,1.9c-0.2,0-0.4,0-0.6,0
			S254.9,16.3,254.6,16.3z"/>
		<path class="st0" d="M268.6,23.2l-1.2,0h-3.5l-1.2,0l-1.2,4c-0.4,0.1-0.9,0.1-1.5,0.1s-1.2-0.1-1.6-0.2l-0.1-0.2l5.6-17
			c0.6-0.1,1.3-0.1,2-0.1c0.7,0,1.4,0.1,1.9,0.2l5.5,17c-0.5,0.3-1.1,0.4-1.8,0.4c-0.7,0-1.2-0.1-1.5-0.4c-0.3-0.3-0.5-0.7-0.7-1.4
			L268.6,23.2z M263.4,20.5l1.1,0h2.2l1.1,0l-0.8-2.6c-0.6-1.9-1-3.6-1.4-4.9h-0.2c-0.2,0.7-0.5,2.2-1.1,4.3L263.4,20.5z"/>
		<path class="st0" d="M286.8,15c0,0.6-0.1,1.1-0.2,1.6c-0.2,0.5-0.4,0.9-0.7,1.3c-0.3,0.4-0.6,0.7-1,1c-0.4,0.3-0.8,0.5-1.3,0.7
			c0.4,0.2,0.8,0.4,1.1,0.8c0.3,0.4,0.6,0.9,0.8,1.4l0.9,2.6c0.2,0.4,0.3,0.8,0.5,1.1s0.4,0.6,0.7,0.8c-0.2,0.3-0.5,0.5-0.9,0.7
			s-0.9,0.3-1.4,0.3c-0.5,0-0.9-0.2-1.2-0.5c-0.3-0.3-0.6-0.8-0.8-1.5l-1.1-3c-0.2-0.6-0.5-1-0.8-1.4c-0.3-0.3-0.8-0.5-1.5-0.5h-1.6
			v6.6c-0.2,0-0.5,0.1-0.8,0.1c-0.3,0-0.6,0-0.9,0c-0.6,0-1.2,0-1.6-0.1V9.9l0.2-0.2c1.4,0,2.5-0.1,3.5-0.1c1,0,1.7,0,2.3,0
			c1.8,0,3.3,0.5,4.3,1.4S286.8,13.3,286.8,15z M278.2,12.3v5.6c0.9-0.1,1.7-0.1,2.3-0.1c1.8,0,2.7-0.9,2.7-2.7
			c0-1.8-0.9-2.7-2.7-2.7c-0.5,0-1,0-1.4,0S278.5,12.3,278.2,12.3z"/>
		<path class="st0" d="M301.3,15c0,0.6-0.1,1.1-0.2,1.6c-0.2,0.5-0.4,0.9-0.7,1.3c-0.3,0.4-0.6,0.7-1,1c-0.4,0.3-0.8,0.5-1.3,0.7
			c0.4,0.2,0.8,0.4,1.1,0.8c0.3,0.4,0.6,0.9,0.8,1.4l0.9,2.6c0.2,0.4,0.3,0.8,0.5,1.1s0.4,0.6,0.7,0.8c-0.2,0.3-0.5,0.5-0.9,0.7
			s-0.9,0.3-1.4,0.3c-0.5,0-0.9-0.2-1.2-0.5c-0.3-0.3-0.6-0.8-0.8-1.5l-1.1-3c-0.2-0.6-0.5-1-0.8-1.4c-0.3-0.3-0.8-0.5-1.5-0.5h-1.6
			v6.6c-0.2,0-0.5,0.1-0.8,0.1c-0.3,0-0.6,0-0.9,0c-0.6,0-1.2,0-1.6-0.1V9.9l0.2-0.2c1.4,0,2.5-0.1,3.5-0.1c1,0,1.7,0,2.3,0
			c1.8,0,3.3,0.5,4.3,1.4S301.3,13.3,301.3,15z M292.7,12.3v5.6c0.9-0.1,1.7-0.1,2.3-0.1c1.8,0,2.7-0.9,2.7-2.7
			c0-1.8-0.9-2.7-2.7-2.7c-0.5,0-1,0-1.4,0S293,12.3,292.7,12.3z"/>
		<path class="st0" d="M305.2,25.9c-1.8-1.6-2.7-4-2.7-7.4c0-1.4,0.2-2.7,0.5-3.8s0.8-2.1,1.4-2.8c0.6-0.8,1.4-1.4,2.3-1.8
			c0.9-0.4,1.9-0.6,3.1-0.6c1.1,0,2.2,0.2,3.1,0.6c0.9,0.4,1.7,1,2.3,1.8c0.6,0.8,1.1,1.7,1.4,2.8s0.5,2.4,0.5,3.8s-0.2,2.7-0.5,3.8
			s-0.8,2.1-1.4,2.8c-0.6,0.8-1.4,1.4-2.3,1.8c-0.9,0.4-1.9,0.6-3.1,0.6C308,27.5,306.4,26.9,305.2,25.9z M313.5,18.5
			c0-4.2-1.2-6.4-3.7-6.4c-2.5,0-3.7,2.1-3.7,6.4c0,4.2,1.2,6.3,3.7,6.3C312.3,24.8,313.5,22.7,313.5,18.5z"/>
	</g>
	<g>
		<g>
			<g>
				<path class="st0" d="M15.9,12.7c0-0.1,0-0.3-0.1-0.4l-4.1-4.7c-0.1-0.1-0.2-0.2-0.4-0.2c-0.1,0-0.3,0-0.4,0.1
					C9,9.3,7.4,11.2,6.2,13.4c-0.1,0.1-0.1,0.3,0,0.4c0,0.1,0.1,0.2,0.2,0.3l5.5,3c0.1,0,0.2,0.1,0.2,0.1c0.2,0,0.4-0.1,0.5-0.3
					c0.8-1.5,1.8-2.8,3.1-3.9C15.8,13,15.9,12.8,15.9,12.7z"/>
				<path class="st0" d="M17.7,11c0.1,0.2,0.3,0.3,0.5,0.3c0.1,0,0.2,0,0.2-0.1c1.5-0.8,3.1-1.3,4.7-1.5c0.3,0,0.5-0.3,0.4-0.6
					l-0.8-6.2c0-0.3-0.3-0.5-0.6-0.4c-2.5,0.3-4.9,1.1-7.1,2.3c-0.3,0.1-0.4,0.4-0.2,0.7L17.7,11z"/>
				<path class="st0" d="M11,19.4l-6-1.6c-0.1,0-0.3,0-0.4,0.1c-0.1,0.1-0.2,0.2-0.2,0.3c-0.5,1.8-0.7,3.7-0.7,5.6c0,0.3,0,0.7,0,1
					c0,0.3,0.2,0.5,0.5,0.5c0,0,0,0,0,0l6.2-0.3c0.1,0,0.3-0.1,0.4-0.2c0.1-0.1,0.1-0.2,0.1-0.4c0-0.2,0-0.5,0-0.7
					c0-1.3,0.2-2.5,0.5-3.7C11.4,19.7,11.3,19.4,11,19.4z"/>
				<path class="st0" d="M34.3,4.4c-2.3-1.1-4.7-1.8-7.2-2c-0.1,0-0.3,0-0.4,0.1c-0.1,0.1-0.2,0.2-0.2,0.4L26,9
					c0,0.3,0.2,0.5,0.5,0.6c1.7,0.2,3.3,0.6,4.8,1.3c0.1,0,0.1,0.1,0.2,0.1c0.1,0,0.1,0,0.2,0c0.1,0,0.2-0.1,0.3-0.3l2.7-5.6
					C34.7,4.8,34.6,4.5,34.3,4.4z"/>
				<path class="st0" d="M43.5,13.1c0-0.1,0-0.3-0.1-0.4c-1.3-2.2-2.9-4.1-4.9-5.7c-0.1-0.1-0.2-0.1-0.4-0.1c-0.1,0-0.3,0.1-0.4,0.2
					L33.9,12c-0.1,0.1-0.1,0.2-0.1,0.4c0,0.1,0.1,0.3,0.2,0.4c1.3,1.1,2.4,2.3,3.2,3.7c0.1,0.2,0.3,0.3,0.4,0.3c0.1,0,0.2,0,0.3-0.1
					l5.4-3.2C43.4,13.4,43.5,13.2,43.5,13.1z"/>
				<path class="st0" d="M45.5,17.3c-0.1-0.3-0.4-0.4-0.7-0.3l-6,1.9c-0.3,0.1-0.4,0.4-0.3,0.7c0.4,1.4,0.6,2.8,0.6,4.2
					c0,0.2,0,0.4,0,0.7c0,0.1,0,0.3,0.1,0.4c0.1,0.1,0.2,0.2,0.4,0.2l6.2,0.3c0,0,0,0,0,0c0.3,0,0.5-0.2,0.5-0.5c0-0.3,0-0.7,0-1
					C46.5,21.5,46.2,19.4,45.5,17.3z"/>
				<path class="st0" d="M25,22.6c-0.1,0-0.2,0-0.3,0l-8.5-5c-0.2-0.1-0.5-0.1-0.6,0.1c-0.2,0.2-0.2,0.4-0.1,0.6l4.6,8.7
					c0,0.2,0,0.3,0,0.5c0,1.3,0.5,2.5,1.4,3.5c0.9,0.9,2.1,1.4,3.5,1.4s2.5-0.5,3.5-1.4c0.9-0.9,1.4-2.1,1.4-3.5S29.4,25,28.5,24
					C27.6,23.1,26.3,22.6,25,22.6z"/>
			</g>
		</g>
	</g>
</g>
</svg>
